<?xml version="1.0" encoding="utf-8"?>
<!-- Generator: Adobe Illustrator 16.0.0, SVG Export Plug-In . SVG Version: 6.00 Build 0)  -->
<!DOCTYPE svg PUBLIC "-//W3C//DTD SVG 1.1//EN" "http://www.w3.org/Graphics/SVG/1.1/DTD/svg11.dtd">
<svg version="1.1" id="图层_1" xmlns="http://www.w3.org/2000/svg" xmlns:xlink="http://www.w3.org/1999/xlink" x="0px" y="0px"
	 width="160px" height="120px" viewBox="0 0 160 120" enable-background="new 0 0 160 120" xml:space="preserve">
<g id="icons" xmlns:dc="http://purl.org/dc/elements/1.1/" xmlns:rdf="http://www.w3.org/1999/02/22-rdf-syntax-ns#" xmlns:inkscape="http://www.inkscape.org/namespaces/inkscape" xmlns:cc="http://creativecommons.org/ns#" xmlns:svg="http://www.w3.org/2000/svg" xmlns:sodipodi="http://sodipodi.sourceforge.net/DTD/sodipodi-0.dtd" sodipodi:docname="icon.svg" inkscape:version="0.48.2 r9819">
	
		<path id="path3054" sodipodi:r1="2.2740893" sodipodi:sides="5" sodipodi:arg2="1.0382862" sodipodi:r2="5.5325499" sodipodi:cx="10" sodipodi:cy="70" sodipodi:type="star" sodipodi:arg1="0.40996758" inkscape:randomized="0" inkscape:flatsided="false" inkscape:transform-center-x="-1.3533705" inkscape:transform-center-y="-3.3390855" inkscape:rounded="0" fill="#D7D7D7" d="
		M19.458,77.743l2.236,7.793l-6.706-4.558l-6.721,4.535l2.261-7.787l-6.392-4.988l8.104-0.256l2.771-7.619l2.747,7.629l8.104,0.281
		L19.458,77.743z"/>
	
		<path id="path3054-2" sodipodi:r1="2.2740893" sodipodi:sides="5" sodipodi:arg2="1.0382862" sodipodi:r2="5.5325499" sodipodi:cx="10" sodipodi:cy="70" sodipodi:type="star" sodipodi:arg1="0.40996758" inkscape:randomized="0" inkscape:flatsided="false" inkscape:transform-center-x="-1.3533705" inkscape:transform-center-y="-3.3390855" inkscape:rounded="0" fill="#C1CDE2" d="
		M49.458,77.743l2.236,7.793l-6.706-4.558l-6.721,4.535l2.261-7.787l-6.392-4.988l8.104-0.256l2.771-7.619l2.747,7.629l8.104,0.281
		L49.458,77.743z"/>
	<path id="path3865" inkscape:connector-curvature="0" fill="#D7D7D7" d="M4.263,105.7l4.375-4.375l4.375,4.375l8.75-8.75
		l4.375,4.375L13.013,114.45L4.263,105.7z"/>
	<path id="path3865-9" inkscape:connector-curvature="0" fill="#C1CDE2" d="M34.263,105.7l4.375-4.375l4.375,4.375l8.75-8.75
		l4.375,4.375L43.013,114.45L34.263,105.7z"/>
	<path id="path3865-9-5" inkscape:connector-curvature="0" fill="#727BBA" d="M64.263,105.7l4.375-4.375l4.375,4.375l8.749-8.75
		l4.375,4.375L73.013,114.45L64.263,105.7z"/>
	
		<path id="path3054-2-2" sodipodi:r1="2.2740893" sodipodi:sides="5" sodipodi:arg2="1.0382862" sodipodi:r2="5.5325499" sodipodi:cx="10" sodipodi:cy="70" sodipodi:type="star" sodipodi:arg1="0.40996758" inkscape:randomized="0" inkscape:flatsided="false" inkscape:transform-center-x="-1.3533705" inkscape:transform-center-y="-3.3390855" inkscape:rounded="0" fill="#727BBA" d="
		M79.458,77.743l2.236,7.793l-6.707-4.558l-6.72,4.535l2.261-7.787l-6.391-4.988l8.104-0.256l2.771-7.619l2.745,7.629l8.104,0.281
		L79.458,77.743z"/>
</g>
<g id="popup">
	<g id="参考线">
	</g>
	<path fill="#727BBA" d="M97,28.8l6.6-6.6L101.4,20h6.6v6.6l-2.199-2.199l-6.6,6.601H97V28.8L97,28.8z"/>
	<path fill="#7F8ABF" d="M114,28.8l6.6-6.6L118.4,20h6.6v6.6l-2.199-2.199l-6.6,6.601H114V28.8L114,28.8z"/>
	<path fill="#727BBA" d="M97,5.2V3h2.201l3.299,3.3l3.301-3.3H108v2.2l-3.299,3.3L108,11.8V14h-2.199l-3.301-3.3L99.201,14H97v-2.2
		l3.301-3.3L97,5.2z"/>
	<path fill="#7F8ABF" d="M114,5.2V3h2.201l3.299,3.3l3.301-3.3H125v2.2l-3.299,3.3L125,11.8V14h-2.199l-3.301-3.3l-3.299,3.3H114
		v-2.2l3.301-3.3L114,5.2z"/>
	<path fill="#727BBA" d="M104,37l-3,3h-4v5h4l3,3V37"/>
	<path fill="#7F8ABF" d="M121,37l-3,3h-4v5h4l3,3V37"/>
	<path fill="#727BBA" d="M97,58h4v-4h3v4h4v3h-4v4h-3v-4h-4V58z"/>
	<path fill="#AAAAAA" d="M1,43.5h28v3H1V43.5z"/>
	<path fill="#7F8ABF" d="M31,43.5h28v3H31V43.5z"/>
	<path fill="#7F8ABF" d="M30,13.5h13V0h3v13.5h14v3H46V30h-3V16.5H30V13.5z"/>
	<path fill="#AAAAAA" d="M0,13.5h13V0h3v13.5h14v3H16V30h-3V16.5H0V13.5z"/>
	<path fill="#7F8ABF" d="M114,58h4v-4h3v4h4v3h-4v4h-3v-4h-4V58z"/>
	<rect x="122" y="40" fill="#7F8ABF" width="1" height="5"/>
	<rect x="124" y="39" fill="#7F8ABF" width="1" height="7"/>
	<rect x="97" y="75" fill="#727BBA" width="11" height="3"/>
	<rect x="114" y="75" fill="#7F8ABF" width="11" height="3"/>
</g>
<g id="remove-from-list">
	<path fill="#FFFFFF" fill-opacity="0.1961" d="M128,20h20v20h-20V20z"/>
	<path fill="#FFFFFF" d="M133,13l2,2l3-3l3,3l2-2l-3-3l3-3l-2-2l-3,3l-3-3l-2,2l3,3L133,13z"/>
	<path fill="#FFFFFF" d="M133,33l2,2l3-3l3,3l2-2l-3-3l3-3l-2-2l-3,3l-3-3l-2,2l3,3L133,33z"/>
</g>
<g>
	<circle fill="#AAAAAA" cx="102.615" cy="100.202" r="2.351"/>
	<circle fill="#AAAAAA" cx="111.475" cy="100.202" r="2.349"/>
	<circle fill="#AAAAAA" cx="120.332" cy="100.202" r="2.351"/>
	<path fill="none" stroke="#AAAAAA" stroke-width="1.5" stroke-miterlimit="10" d="M126.227,103.486c0,2.594-2.101,4.693-4.69,4.693
		h-1.855l-9.063,3.944l2.098-3.944h-10.833c-2.593,0-4.693-2.101-4.693-4.693v-7.23c0-2.592,2.102-4.693,4.693-4.693h19.654
		c2.591,0,4.691,2.103,4.691,4.693v7.23H126.227z"/>
</g>
<g>
	<circle fill="#727BBA" cx="133.908" cy="100.202" r="2.351"/>
	<circle fill="#727BBA" cx="142.768" cy="100.202" r="2.349"/>
	<circle fill="#727BBA" cx="151.625" cy="100.202" r="2.351"/>
	<path fill="none" stroke="#727BBA" stroke-width="1.5" stroke-miterlimit="10" d="M157.52,103.486c0,2.594-2.101,4.693-4.69,4.693
		h-1.854l-9.063,3.944l2.098-3.944h-10.833c-2.593,0-4.693-2.101-4.693-4.693v-7.23c0-2.592,2.102-4.693,4.693-4.693h19.654
		c2.591,0,4.691,2.103,4.691,4.693v7.23H157.52z"/>
</g>
</svg>
